<svg width="30" height="30" viewBox="0 0 30 30" fill="none" xmlns="http://www.w3.org/2000/svg">
<path fill-rule="evenodd" clip-rule="evenodd" d="M15 2C7.8203 2 2 7.8203 2 15C2 22.1797 7.8203 28 15 28C22.1797 28 28 22.1797 28 15C28 7.8203 22.1797 2 15 2ZM0 15C0 6.71573 6.71573 0 15 0C23.2843 0 30 6.71573 30 15C30 23.2843 23.2843 30 15 30C6.71573 30 0 23.2843 0 15Z" fill="#111E62"/>
<path fill-rule="evenodd" clip-rule="evenodd" d="M15 0.456543C15.5523 0.456543 16 0.904258 16 1.45654V28.6107C16 29.163 15.5523 29.6107 15 29.6107C14.4477 29.6107 14 29.163 14 28.6107V1.45654C14 0.904258 14.4477 0.456543 15 0.456543Z" fill="#111E62"/>
<path fill-rule="evenodd" clip-rule="evenodd" d="M2.23914 7.81885C2.23914 7.26656 2.68685 6.81885 3.23914 6.81885H26.4649C27.0172 6.81885 27.4649 7.26656 27.4649 7.81885C27.4649 8.37113 27.0172 8.81885 26.4649 8.81885H3.23914C2.68685 8.81885 2.23914 8.37113 2.23914 7.81885Z" fill="#111E62"/>
<path fill-rule="evenodd" clip-rule="evenodd" d="M0.172729 14.9766C0.172729 14.4243 0.620445 13.9766 1.17273 13.9766H28.4053C28.9575 13.9766 29.4053 14.4243 29.4053 14.9766C29.4053 15.5288 28.9575 15.9766 28.4053 15.9766H1.17273C0.620445 15.9766 0.172729 15.5288 0.172729 14.9766Z" fill="#111E62"/>
<path fill-rule="evenodd" clip-rule="evenodd" d="M2.12549 21.9641C2.12549 21.4118 2.5732 20.9641 3.12549 20.9641H26.8714C27.4237 20.9641 27.8714 21.4118 27.8714 21.9641C27.8714 22.5164 27.4237 22.9641 26.8714 22.9641H3.12549C2.5732 22.9641 2.12549 22.5164 2.12549 21.9641Z" fill="#111E62"/>
<path fill-rule="evenodd" clip-rule="evenodd" d="M13.4814 0.462C13.905 0.816353 13.9611 1.44702 13.6068 1.87064C12.563 3.11844 8.84445 7.87001 8.84058 14.9772C8.83678 21.9925 12.4545 26.7062 13.4985 27.9755C13.8493 28.402 13.7879 29.0322 13.3614 29.383C12.9349 29.7338 12.3047 29.6725 11.9538 29.2459C10.8046 27.8487 6.83641 22.6847 6.84058 14.9761C6.84484 7.1663 10.9235 1.96132 12.0727 0.587414C12.4271 0.163796 13.0578 0.107647 13.4814 0.462Z" fill="#111E62"/>
<path fill-rule="evenodd" clip-rule="evenodd" d="M16.5404 0.442003C16.975 0.101301 17.6036 0.177478 17.9443 0.61215C19.1489 2.14895 22.885 7.30799 22.9291 14.9141C22.9735 22.5684 19.2505 27.7936 18.063 29.3347C17.7259 29.7722 17.098 29.8535 16.6605 29.5164C16.223 29.1794 16.1417 28.5514 16.4788 28.114C17.5623 26.7078 20.9697 21.9208 20.9292 14.9257C20.8888 7.97449 17.4694 3.24824 16.3702 1.84594C16.0295 1.41127 16.1057 0.782706 16.5404 0.442003Z" fill="#111E62"/>
</svg>
