<svg width="300" height="100" viewBox="0 0 300 100" fill="none" xmlns="http://www.w3.org/2000/svg">
<path d="M275.258 0.000325H23.8298C22.9134 0.000325 22.0079 0.000325 21.0938 0.005325C20.3286 0.010325 19.5696 0.02485 18.7971 0.037075C17.1189 0.0568295 15.4446 0.204516 13.7888 0.47885C12.1353 0.759157 10.5336 1.28761 9.03795 2.04635C7.54408 2.8115 6.17908 3.80574 4.99249 4.993C3.79966 6.17692 2.80535 7.54537 2.04779 9.04572C1.28813 10.5431 0.761382 12.1477 0.485735 13.804C0.207468 15.4583 0.0577293 17.1316 0.0378641 18.809C0.0146708 19.5755 0.0122215 20.3446 0 21.1112V78.8968C0.0122215 79.6731 0.0146708 80.4251 0.0378641 81.2016C0.0577354 82.8789 0.207474 84.5521 0.485735 86.2063C0.760621 87.8636 1.2874 89.4691 2.04779 90.9671C2.80501 92.4626 3.79946 93.8255 4.99249 95.0028C6.17458 96.1954 7.54046 97.1903 9.03795 97.9496C10.5336 98.7103 12.1351 99.2419 13.7888 99.5266C15.4449 99.7987 17.119 99.9465 18.7971 99.9686C19.5696 99.9856 20.3286 99.9953 21.0938 99.9953C22.0078 100 22.9134 100 23.8298 100H275.258C276.156 100 277.069 100 277.967 99.9953C278.728 99.9953 279.509 99.9856 280.271 99.9686C281.946 99.9476 283.617 99.7999 285.27 99.5266C286.929 99.2399 288.536 98.7085 290.039 97.9496C291.535 97.1898 292.899 96.1949 294.081 95.0028C295.27 93.8209 296.267 92.459 297.034 90.9671C297.788 89.468 298.31 87.8627 298.581 86.2063C298.86 84.5519 299.015 82.879 299.045 81.2016C299.055 80.4251 299.055 79.6731 299.055 78.8968C299.074 77.9886 299.074 77.0853 299.074 76.1623V23.8406C299.074 22.9251 299.074 22.0169 299.055 21.1112C299.055 20.3446 299.055 19.5755 299.045 18.8089C299.015 17.1314 298.86 15.4584 298.581 13.8039C298.309 12.1485 297.788 10.5441 297.034 9.04562C295.491 6.03831 293.045 3.59039 290.039 2.04612C288.536 1.28924 286.928 0.760926 285.27 0.478625C283.617 0.203082 281.946 0.0553444 280.271 0.036725C279.509 0.024525 278.728 0.009875 277.967 0.005C277.069 0 276.156 0.000325 275.258 0.000325Z" fill="#A6A6A6"/>
<path d="M21.106 97.8125C20.3445 97.8125 19.6014 97.8027 18.8459 97.7858C17.2808 97.7654 15.7194 97.6291 14.1744 97.378C12.7338 97.1298 11.3382 96.6682 10.0338 96.0083C8.74124 95.3538 7.56236 94.4957 6.54227 93.4668C5.50742 92.4499 4.64586 91.2706 3.99173 89.9755C3.33039 88.672 2.87271 87.2747 2.63462 85.8325C2.3775 84.2828 2.23839 82.7158 2.21849 81.145C2.20264 80.6178 2.1819 78.8623 2.1819 78.8623V21.1108C2.1819 21.1108 2.20399 19.3823 2.21861 18.8745C2.23767 17.3062 2.37597 15.7416 2.63232 14.1943C2.87085 12.7481 3.32889 11.3469 3.99058 10.0391C4.6423 8.74486 5.49908 7.56465 6.5277 6.5442C7.55516 5.51405 8.73782 4.65151 10.0325 3.98802C11.334 3.33023 12.727 2.87183 14.1646 2.62818C15.7147 2.37459 17.2816 2.23749 18.8521 2.21803L21.1072 2.1875H277.955L280.237 2.21925C281.793 2.23775 283.346 2.37362 284.881 2.62572C286.334 2.87244 287.741 3.33404 289.057 3.99535C291.651 5.33247 293.762 7.44791 295.093 10.0452C295.744 11.3439 296.195 12.7338 296.431 14.1675C296.69 15.7275 296.835 17.3043 296.865 18.8855C296.872 19.5935 296.872 20.354 296.872 21.1108C296.892 22.0483 296.892 22.9407 296.892 23.8403V76.162C296.892 77.0703 296.892 77.9565 296.872 78.85C296.872 79.663 296.872 80.4078 296.863 81.1742C296.834 82.7272 296.691 84.2759 296.436 85.808C296.202 87.2607 295.747 88.6688 295.086 89.983C294.427 91.264 293.571 92.4332 292.548 93.4473C291.527 94.4817 290.346 95.3449 289.05 96.0035C287.738 96.6685 286.332 97.1318 284.881 97.378C283.337 97.6304 281.775 97.7667 280.21 97.7858C279.478 97.8027 278.711 97.8125 277.967 97.8125L275.258 97.8175L21.106 97.8125Z" fill="black"/>
<path d="M61.9044 50.7518C61.9313 48.6651 62.4853 46.6192 63.5151 44.8043C64.5449 42.9894 66.0169 41.4646 67.7941 40.3717C66.6651 38.7588 65.1756 37.4314 63.4441 36.495C61.7125 35.5586 59.7865 35.039 57.819 34.9775C53.6222 34.5368 49.5535 37.4895 47.4148 37.4895C45.2347 37.4895 41.9419 35.0212 38.3961 35.0942C36.1026 35.1683 33.8674 35.8354 31.9083 37.0306C29.9491 38.2257 28.3329 39.9081 27.2171 41.9138C22.3835 50.2849 25.9889 62.5875 30.6191 69.354C32.9357 72.6674 35.6431 76.3685 39.1857 76.2373C42.6523 76.0935 43.9471 74.0261 48.1316 74.0261C52.2773 74.0261 53.492 76.2373 57.1065 76.1539C60.8264 76.0934 63.1701 72.8257 65.4054 69.481C67.0699 67.1201 68.3507 64.5108 69.2004 61.7497C67.0392 60.8354 65.195 59.305 63.8975 57.3492C62.6001 55.3935 61.9069 53.099 61.9044 50.7518Z" fill="white"/>
<path d="M55.0773 30.5273C57.1055 28.0918 58.1047 24.9614 57.8628 21.8008C54.7641 22.1263 51.9018 23.6077 49.8461 25.9498C48.8411 27.094 48.0713 28.4251 47.5808 29.867C47.0903 31.3089 46.8888 32.8334 46.9877 34.3533C48.5376 34.3692 50.0709 34.0332 51.4721 33.3705C52.8734 32.7078 54.1061 31.7356 55.0773 30.5273Z" fill="white"/>
<path d="M105.725 67.8492H93.8951L91.0542 76.2403H86.0434L97.2487 45.1953H102.455L113.66 76.2403H108.564L105.725 67.8492ZM95.1204 63.9771H104.498L99.875 50.3589H99.7456L95.1204 63.9771Z" fill="white"/>
<path d="M137.86 64.9246C137.86 71.9583 134.096 76.4773 128.416 76.4773C126.978 76.5526 125.547 76.2211 124.288 75.5208C123.029 74.8204 121.992 73.7795 121.297 72.5173H121.189V83.7283H116.545V53.6062H121.041V57.3709H121.126C121.853 56.1147 122.907 55.0792 124.176 54.3746C125.445 53.67 126.881 53.3226 128.331 53.3694C134.074 53.3694 137.86 57.9104 137.86 64.9246ZM133.086 64.9246C133.086 60.3421 130.718 57.3294 127.106 57.3294C123.557 57.3294 121.17 60.4056 121.17 64.9246C121.17 69.4852 123.557 72.5394 127.106 72.5394C130.718 72.5394 133.086 69.5486 133.086 64.9246Z" fill="white"/>
<path d="M162.764 64.9246C162.764 71.9583 159.001 76.4773 153.321 76.4773C151.883 76.5526 150.452 76.2211 149.193 75.5207C147.934 74.8204 146.897 73.7795 146.202 72.5173H146.094V83.7283H141.45V53.6062H145.945V57.3709H146.031C146.758 56.1147 147.812 55.0792 149.081 54.3746C150.35 53.67 151.785 53.3226 153.236 53.3694C158.979 53.3694 162.764 57.9104 162.764 64.9246ZM157.99 64.9246C157.99 60.3421 155.623 57.3294 152.011 57.3294C148.462 57.3294 146.075 60.4055 146.075 64.9246C146.075 69.4851 148.462 72.5393 152.011 72.5393C155.623 72.5393 157.99 69.5486 157.99 64.9246Z" fill="white"/>
<path d="M179.225 67.5905C179.569 70.6691 182.559 72.6905 186.644 72.6905C190.559 72.6905 193.376 70.669 193.376 67.8931C193.376 65.4834 191.677 64.0406 187.655 63.0518L183.632 62.0825C177.933 60.7056 175.288 58.0396 175.288 53.7134C175.288 48.3569 179.954 44.6777 186.581 44.6777C193.139 44.6777 197.635 48.3569 197.786 53.7134H193.097C192.817 50.6152 190.256 48.7451 186.515 48.7451C182.773 48.7451 180.213 50.6372 180.213 53.3911C180.213 55.586 181.848 56.8775 185.849 57.8661L189.268 58.706C195.636 60.2123 198.282 62.771 198.282 67.3119C198.282 73.12 193.656 76.7577 186.3 76.7577C179.417 76.7577 174.77 73.2055 174.47 67.5902L179.225 67.5905Z" fill="white"/>
<path d="M208.306 48.2495V53.606H212.609V57.2852H208.306V69.7632C208.306 71.7017 209.167 72.605 211.059 72.605C211.569 72.5961 212.079 72.5602 212.587 72.4975V76.1547C211.736 76.3137 210.872 76.3856 210.007 76.3696C205.426 76.3696 203.639 74.6484 203.639 70.2587V57.2852H200.349V53.606H203.639V48.2495H208.306Z" fill="white"/>
<path d="M215.101 64.9243C215.101 57.8027 219.294 53.3276 225.832 53.3276C232.393 53.3276 236.567 57.8026 236.567 64.9243C236.567 72.0654 232.415 76.521 225.832 76.521C219.252 76.521 215.101 72.0654 215.101 64.9243ZM231.834 64.9243C231.834 60.0391 229.596 57.1558 225.832 57.1558C222.069 57.1558 219.833 60.061 219.833 64.9243C219.833 69.8291 222.069 72.6904 225.832 72.6904C229.596 72.6904 231.834 69.8291 231.834 64.9243Z" fill="white"/>
<path d="M240.396 53.606H244.826V57.4585H244.933C245.233 56.2553 245.938 55.192 246.929 54.4473C247.92 53.7026 249.137 53.3219 250.376 53.3692C250.911 53.3673 251.445 53.4254 251.967 53.5425V57.8882C251.292 57.6817 250.587 57.5868 249.88 57.6075C249.206 57.5801 248.533 57.6991 247.909 57.9563C247.284 58.2135 246.723 58.6029 246.263 59.0976C245.803 59.5923 245.456 60.1807 245.245 60.8224C245.034 61.4641 244.964 62.1438 245.041 62.815V76.2403H240.396L240.396 53.606Z" fill="white"/>
<path d="M273.382 69.5923C272.757 73.7012 268.757 76.521 263.639 76.521C257.056 76.521 252.97 72.1094 252.97 65.0317C252.97 57.9321 257.078 53.3276 263.443 53.3276C269.704 53.3276 273.641 57.6294 273.641 64.4922V66.084H257.659V66.3647C257.585 67.1977 257.69 68.0369 257.965 68.8265C258.24 69.6161 258.68 70.3381 259.256 70.9444C259.832 71.5508 260.53 72.0277 261.304 72.3435C262.078 72.6592 262.911 72.8066 263.746 72.7759C264.844 72.8787 265.945 72.6245 266.887 72.0509C267.828 71.4772 268.559 70.615 268.972 69.5923L273.382 69.5923ZM257.681 62.8369H268.994C269.035 62.0879 268.922 61.3384 268.66 60.6354C268.399 59.9323 267.995 59.291 267.473 58.7516C266.952 58.2122 266.325 57.7863 265.632 57.5008C264.938 57.2152 264.193 57.0762 263.443 57.0923C262.687 57.0878 261.937 57.2331 261.237 57.52C260.538 57.8068 259.901 58.2295 259.366 58.7636C258.83 59.2977 258.405 59.9326 258.116 60.6317C257.827 61.3309 257.679 62.0803 257.681 62.8369Z" fill="white"/>
</svg>
