<svg width="201" height="70" viewBox="0 0 201 70" fill="none" xmlns="http://www.w3.org/2000/svg">
<path d="M25.5592 14.6724C27.7145 16.0171 29.4184 17.8869 30.6711 20.2816C31.9237 22.6763 32.55 25.4026 32.55 28.4605C32.55 31.5184 31.9237 34.2447 30.6711 36.6395C29.4184 39.0342 27.7145 40.8947 25.5592 42.2211C23.4039 43.5474 21.0553 44.2105 18.5132 44.2105C14.6816 44.2105 11.6605 42.5895 9.45 39.3474V70H0V12.9869H9.45V17.0211C11.55 14.1105 14.5711 12.6553 18.5132 12.6553C21.0553 12.6553 23.4039 13.3276 25.5592 14.6724ZM12.9316 21.6908C11.9 22.2619 11.0618 23.1092 10.4171 24.2329C9.77237 25.3566 9.45 26.7474 9.45 28.4053C9.45 30.0632 9.77237 31.4632 10.4171 32.6053C11.0618 33.7474 11.9092 34.604 12.9592 35.175C14.0092 35.7461 15.0868 36.0316 16.1921 36.0316C17.2974 36.0316 18.4211 35.7461 19.4526 35.175C20.4842 34.604 21.3224 33.7566 21.9671 32.6329C22.6118 31.5092 22.9342 30.1184 22.9342 28.4605C22.9342 26.8026 22.6118 25.4026 21.9671 24.2605C21.3224 23.1184 20.475 22.2619 19.425 21.6908C18.375 21.1197 17.2974 20.8342 16.1921 20.8342C15.0868 20.8342 13.9632 21.1197 12.9316 21.6908Z" fill="#020C42"/>
<path d="M48.0236 2.92896V43.8237H38.5736V2.92896H48.0236Z" fill="#020C42"/>
<path d="M77.1476 17.0211V12.9869H86.5975V43.8237H77.1476V39.3474C74.8633 42.5895 71.8423 44.2105 68.0844 44.2105C65.5423 44.2105 63.1936 43.5474 61.0383 42.2211C58.8831 40.8947 57.1791 39.0342 55.9265 36.6395C54.6739 34.2447 54.0475 31.5184 54.0475 28.4605C54.0475 25.4026 54.6739 22.6763 55.9265 20.2816C57.1791 17.8869 58.8831 16.0171 61.0383 14.6724C63.1936 13.3276 65.5423 12.6553 68.0844 12.6553C72.0265 12.6553 75.0476 14.1105 77.1476 17.0211ZM67.1725 21.6908C66.1225 22.2619 65.2752 23.1184 64.6304 24.2605C63.9857 25.4026 63.6633 26.8026 63.6633 28.4605C63.6633 30.1184 63.9857 31.5092 64.6304 32.6329C65.2752 33.7566 66.1133 34.604 67.1449 35.175C68.1765 35.7461 69.2633 36.0316 70.4054 36.0316C71.5476 36.0316 72.5883 35.7461 73.6383 35.175C74.6883 34.604 75.5357 33.7474 76.1804 32.6053C76.8252 31.4632 77.1476 30.0632 77.1476 28.4053C77.1476 26.7474 76.8252 25.3566 76.1804 24.2329C75.5357 23.1092 74.6975 22.2619 73.666 21.6908C72.6344 21.1197 71.5476 20.8342 70.4054 20.8342C69.2633 20.8342 68.2225 21.1197 67.1725 21.6908Z" fill="#020C42"/>
<path d="M95.6606 1.60263C96.7291 0.534211 98.037 0 99.5843 0C101.132 0 102.44 0.534211 103.508 1.60263C104.576 2.67105 105.111 3.99737 105.111 5.58158C105.111 7.16579 104.576 8.43684 103.508 9.50526C102.44 10.5737 101.132 11.1079 99.5843 11.1079C98.037 11.1079 96.7291 10.5737 95.6606 9.50526C94.5922 8.43684 94.058 7.12895 94.058 5.58158C94.058 4.03421 94.5922 2.67105 95.6606 1.60263ZM104.337 12.9868V43.8237H94.887V12.9868H104.337Z" fill="#020C42"/>
<path d="M137.577 14.2303C139.364 15.2803 140.764 16.8 141.777 18.7895C142.791 20.779 143.297 23.1184 143.297 25.8079V43.8237H133.902V27.079C133.902 25.0895 133.377 23.5513 132.327 22.4645C131.277 21.3776 129.831 20.8342 127.989 20.8342C126.147 20.8342 124.701 21.3776 123.651 22.4645C122.601 23.5513 122.076 25.0895 122.076 27.079V43.8237H112.626V12.9869H122.076V17.5184C122.997 16.0079 124.259 14.8197 125.862 13.954C127.464 13.0882 129.316 12.6553 131.416 12.6553C133.737 12.6553 135.791 13.1803 137.577 14.2303Z" fill="#020C42"/>
<path d="M160.76 2.92896V43.8237H151.31V2.92896H160.76Z" fill="#020C42"/>
<path d="M175.847 12.9868L182.7 33.1579L190.216 12.9868H200.108L180.434 58.5237H170.542L177.118 43.2158L165.126 12.9868H175.847Z" fill="#020C42"/>
</svg>
